<svg width="185" height="165" viewBox="0 0 185 165" fill="none" xmlns="http://www.w3.org/2000/svg">
<g clip-path="url(#clip0_39_3065)">
<path d="M135.375 78.7557C134.062 78.6118 133.186 77.95 133.186 76.5879C133.177 75.2451 134.005 74.4298 135.337 74.4394C136.574 74.4394 137.354 75.2163 137.421 76.4441C137.497 77.8061 136.66 78.5255 135.375 78.7557Z" fill="#826F8C"/>
<path d="M137.259 27.0084C137.164 25.8765 136.374 25.138 135.232 25.2051C134.005 25.2723 133.243 26.0972 133.348 27.3537C133.443 28.4855 134.233 29.0898 135.365 29.1953C136.583 28.9747 137.364 28.2745 137.259 27.0084Z" fill="#826F8C"/>
<path d="M123.385 0.957311C122.148 0.899761 121.339 1.6671 121.301 2.91402C121.273 4.06502 122.015 4.84195 123.138 4.8995C124.384 4.96665 125.069 4.17053 125.26 2.95239C125.136 1.80138 124.517 1.01486 123.385 0.957311Z" fill="#826F8C"/>
<path d="M133.472 15.153C133.529 16.352 134.281 16.9755 135.442 16.8987C136.517 16.8316 137.135 16.1506 137.126 15.0667C137.126 13.8677 136.422 13.2635 135.261 13.1867C134.09 13.3114 133.415 13.9637 133.472 15.153Z" fill="#826F8C"/>
<path d="M147.308 74.6696C146.137 74.6887 145.433 75.4177 145.442 76.5879C145.452 77.7677 146.175 78.4775 147.346 78.4679C148.516 78.4583 149.135 77.7197 149.23 76.5495C149.125 75.3793 148.488 74.66 147.308 74.6696Z" fill="#826F8C"/>
<path d="M161.448 51.8605C161.42 50.8725 160.801 50.2299 159.831 50.2299C158.746 50.2299 158.089 50.9205 158.156 52.014C158.222 52.9827 158.898 53.5007 159.964 53.587C160.792 53.3568 161.477 52.8676 161.448 51.8605Z" fill="#826F8C"/>
<path d="M159.973 74.8806C158.879 74.7751 158.184 75.3985 158.108 76.5016C158.041 77.5087 158.65 78.1705 159.621 78.2664C160.725 78.3815 161.324 77.7101 161.515 76.6742C161.458 75.6479 160.953 74.9669 159.973 74.8806Z" fill="#826F8C"/>
<path d="M158.194 39.7941C158.203 40.6957 158.803 41.3096 159.678 41.3671C160.677 41.4343 161.343 40.8108 161.391 39.8229C161.448 38.8157 160.772 38.2786 159.802 38.106C158.841 38.2498 158.184 38.7774 158.194 39.7941Z" fill="#826F8C"/>
<path d="M158.108 63.9845C158.118 65.0875 158.784 65.7397 159.878 65.7014C160.858 65.663 161.477 65.0204 161.477 64.0228C161.477 62.9102 160.782 62.3634 159.716 62.2579C158.755 62.4498 158.108 62.9773 158.108 63.9845Z" fill="#826F8C"/>
<path d="M147.46 1.37933C146.48 1.31219 145.833 1.92606 145.795 2.914C145.766 3.80603 146.356 4.4199 147.213 4.47745C148.193 4.54459 148.745 3.92113 148.916 2.90441C148.792 2.06993 148.326 1.43688 147.46 1.37933Z" fill="#826F8C"/>
<path d="M133.586 2.86606C133.557 3.94993 134.166 4.62135 135.242 4.65971C136.317 4.69808 136.974 4.08421 137.021 2.99076C137.069 1.8973 136.422 1.3218 135.242 1.13956C134.347 1.29302 133.605 1.74383 133.586 2.86606Z" fill="#826F8C"/>
<path d="M145.69 15.0475C145.69 16.0355 146.308 16.6877 147.279 16.7165C148.364 16.7357 149.03 16.0547 148.982 14.9612C148.944 13.9829 148.269 13.4649 147.298 13.3594C146.337 13.5321 145.69 14.0596 145.69 15.0475Z" fill="#826F8C"/>
<path d="M145.614 27.0947C145.566 28.1785 146.166 28.8596 147.241 28.9171C148.316 28.9747 148.983 28.3608 149.049 27.2769C149.116 26.1835 148.469 25.5984 147.441 25.4257C146.366 25.4833 145.671 26.0012 145.614 27.0947Z" fill="#826F8C"/>
<path d="M158.27 27.3825C158.375 28.2553 159.003 28.8212 159.878 28.7445C160.839 28.6582 161.439 28.0059 161.315 27.0084C161.21 26.1355 160.582 25.6751 159.716 25.6176C158.765 25.819 158.146 26.3753 158.27 27.3825Z" fill="#826F8C"/>
<path d="M159.954 13.7047C159.145 13.6279 158.565 13.9924 158.47 14.8461C158.375 15.7573 158.784 16.3616 159.745 16.4095C160.573 16.4479 161.048 15.9971 161.144 15.1626C161.153 14.3377 160.792 13.791 159.954 13.7047Z" fill="#826F8C"/>
<path d="M161.039 3.12502C161.163 2.30013 160.706 1.75341 159.897 1.66708C159.174 1.59035 158.67 2.03157 158.565 2.73176C158.441 3.56624 158.917 4.03623 159.688 4.20888C160.43 4.19929 160.934 3.83481 161.039 3.12502Z" fill="#826F8C"/>
<path d="M173.172 52.0331C173.238 51.2179 172.877 50.6328 172.03 50.5464C171.116 50.4505 170.526 50.8726 170.488 51.8509C170.46 52.6854 170.907 53.165 171.725 53.2513C172.563 53.2513 173.095 52.8772 173.172 52.0331Z" fill="#826F8C"/>
<path d="M171.954 62.6608C171.135 62.6032 170.574 62.9965 170.498 63.8405C170.422 64.7613 170.859 65.3464 171.82 65.3656C172.658 65.3848 173.105 64.9148 173.191 63.9652C173.153 63.265 172.801 62.7087 171.954 62.6608Z" fill="#826F8C"/>
<path d="M173.076 27.3537C173.171 26.5288 172.715 25.9917 171.887 25.9341C171.154 25.8766 170.669 26.337 170.583 27.0372C170.488 27.862 170.973 28.332 171.754 28.4855C172.505 28.4471 173 28.0539 173.076 27.3537Z" fill="#826F8C"/>
<path d="M171.916 75.2163C171.097 75.1779 170.555 75.5808 170.498 76.4249C170.431 77.3553 170.897 77.9116 171.858 77.9116C172.696 77.9116 173.134 77.432 173.191 76.5783C173.162 75.7726 172.762 75.2643 171.916 75.2163Z" fill="#826F8C"/>
<path d="M173.133 39.7078C173.114 38.9501 172.696 38.4897 171.953 38.4417C171.116 38.3842 170.583 38.8158 170.545 39.6791C170.507 40.5423 170.983 40.9931 171.944 41.0795C172.639 40.9835 173.152 40.5903 173.133 39.7078Z" fill="#826F8C"/>
<path d="M170.726 14.99C170.678 15.6422 171.107 16.1026 171.716 16.1601C172.448 16.2273 172.934 15.7669 172.934 15.0187C172.924 14.3857 172.477 14.0212 171.773 13.9157C171.23 14.0308 170.774 14.3473 170.726 14.99Z" fill="#826F8C"/>
<path d="M183.801 65.1259C184.448 65.1738 184.904 64.7422 184.962 64.1283C185.028 63.3898 184.571 62.9006 183.829 62.9006C183.201 62.9102 182.84 63.361 182.744 63.994C182.811 64.6367 183.173 65.0683 183.801 65.1259Z" fill="#826F8C"/>
<path d="M183.981 75.4657C183.334 75.3794 182.868 75.8014 182.782 76.4057C182.678 77.1442 183.125 77.643 183.858 77.6814C184.495 77.7102 184.857 77.2593 184.99 76.6167C184.952 75.9836 184.59 75.5424 183.981 75.4657Z" fill="#826F8C"/>
<path d="M171.801 2.05076C171.325 2.06035 171.011 2.32892 170.964 2.8085C170.916 3.37441 171.173 3.76768 171.763 3.80604C172.344 3.84441 172.658 3.53747 172.715 2.9332C172.677 2.35769 172.391 2.03158 171.801 2.05076Z" fill="#826F8C"/>
<path d="M183.763 38.8733C183.277 38.9117 183.02 39.2186 183.001 39.6982C182.982 40.2833 183.287 40.6286 183.877 40.619C184.467 40.619 184.743 40.2737 184.752 39.7078C184.676 39.1035 184.334 38.8254 183.763 38.8733Z" fill="#826F8C"/>
<path d="M184.8 52.0332C184.866 51.3713 184.562 50.9397 183.858 50.9301C183.277 50.9301 182.954 51.2466 182.925 51.8317C182.897 52.4168 183.192 52.743 183.839 52.8389C184.324 52.8389 184.743 52.6279 184.8 52.0332Z" fill="#826F8C"/>
<path d="M137.383 51.966C137.421 50.6328 136.612 49.7887 135.28 49.7791C134.052 49.7695 133.262 50.5656 133.215 51.7934C133.167 53.1458 134.024 53.846 135.289 54.0378C136.517 53.8556 137.354 53.2033 137.383 51.966Z" fill="#826F8C"/>
<path d="M133.253 39.6119C133.158 40.8492 133.919 41.7029 135.108 41.8084C136.431 41.9331 137.297 41.1082 137.345 39.7845C137.392 38.5472 136.564 37.8758 135.375 37.636C134.176 37.7511 133.348 38.3937 133.253 39.6119Z" fill="#826F8C"/>
<path d="M147.27 37.9046C146.194 37.9333 145.547 38.576 145.509 39.6503C145.471 40.83 146.118 41.559 147.298 41.5878C148.478 41.6165 149.097 40.9164 149.192 39.7366C149.078 38.5568 148.45 37.8758 147.27 37.9046Z" fill="#826F8C"/>
<path d="M149.22 64.0324C149.23 62.8526 148.526 62.1236 147.355 62.1141C146.185 62.0949 145.462 62.8142 145.452 63.994C145.433 65.1738 146.147 65.8165 147.374 65.9507C148.469 65.826 149.211 65.2218 149.22 64.0324Z" fill="#826F8C"/>
<path d="M147.317 49.9805C146.147 49.9997 145.442 50.7191 145.452 51.8989C145.462 53.0787 146.185 53.7884 147.355 53.7789C148.526 53.7693 149.144 53.0307 149.239 51.8605C149.125 50.6807 148.488 49.9709 147.317 49.9805Z" fill="#826F8C"/>
<path d="M125.326 15.1147C125.364 13.8773 124.584 13.0524 123.385 12.9949C122.062 12.9373 121.215 13.7718 121.225 15.1051C121.234 16.3328 122.072 16.9946 123.271 17.1769C124.46 17.0042 125.288 16.352 125.326 15.1147Z" fill="#826F8C"/>
<path d="M109.149 2.82769C109.111 4.17053 109.911 5.0146 111.243 5.02419C112.461 5.04337 113.26 4.25685 113.317 3.02912C113.374 1.67668 112.528 0.97649 111.138 0.765472C110.063 0.986082 109.188 1.58077 109.149 2.82769Z" fill="#826F8C"/>
<path d="M137.383 64.1763C137.478 62.843 136.679 61.9606 135.356 61.9126C134.033 61.8742 133.205 62.7183 133.215 64.0611C133.224 65.2985 134.043 65.9603 135.232 66.1617C136.46 66.0371 137.297 65.3944 137.383 64.1763Z" fill="#826F8C"/>
<path d="M123.195 25.0517C121.967 25.09 121.187 25.867 121.149 27.0947C121.111 28.4375 121.901 29.2816 123.233 29.3104C124.584 29.3392 125.26 28.4759 125.431 27.1618C125.241 25.8574 124.546 25.0133 123.195 25.0517Z" fill="#826F8C"/>
<path d="M123.337 37.5593C121.986 37.5305 121.158 38.2595 121.101 39.6311C121.044 41.0986 121.834 41.9427 123.309 41.9427C124.679 41.9427 125.355 41.1082 125.479 39.7654C125.374 38.4225 124.708 37.588 123.337 37.5593Z" fill="#826F8C"/>
<path d="M111.309 12.8702C109.844 12.851 109.026 13.6759 109.073 15.153C109.111 16.5246 109.92 17.2728 111.281 17.2536C112.651 17.2344 113.327 16.4287 113.46 14.9612C113.308 13.7622 112.689 12.8894 111.309 12.8702Z" fill="#826F8C"/>
<path d="M98.7392 0.736695C97.3784 0.76547 96.5981 1.5424 96.5981 2.91401C96.5981 4.40073 97.4546 5.18725 98.9105 5.12011C100.281 5.05296 100.918 4.18971 100.975 2.8181C100.814 1.49444 100.1 0.70792 98.7392 0.736695Z" fill="#826F8C"/>
<path d="M123.309 61.7592C121.967 61.7304 121.13 62.4498 121.044 63.8118C120.949 65.2505 121.653 66.1809 123.128 66.2577C124.574 66.3344 125.383 65.5575 125.536 64.0995C125.469 62.6512 124.784 61.7783 123.309 61.7592Z" fill="#826F8C"/>
<path d="M121.082 51.592C120.949 53.0403 121.615 53.9803 123.1 54.0954C124.432 54.2009 125.326 53.5391 125.469 52.1579C125.621 50.6999 124.908 49.8463 123.433 49.6161C122.139 49.6544 121.206 50.2012 121.082 51.592Z" fill="#826F8C"/>
<path d="M123.233 74.3147C121.881 74.3242 121.082 75.082 121.035 76.444C120.977 77.902 121.729 78.7748 123.195 78.8228C124.66 78.8611 125.421 78.0458 125.526 76.5879C125.44 75.1395 124.698 74.3051 123.233 74.3147Z" fill="#826F8C"/>
<path d="M108.997 27.1523C108.978 28.5047 109.692 29.3488 111.043 29.4351C112.47 29.531 113.393 28.8116 113.47 27.3249C113.546 25.867 112.775 25.0517 111.329 24.9078C109.882 24.9654 109.026 25.6656 108.997 27.1523Z" fill="#826F8C"/>
<path d="M98.9485 12.7743C97.5211 12.6784 96.5981 13.4073 96.5029 14.8749C96.4078 16.3136 97.131 17.244 98.5869 17.3399C100.014 17.4358 100.871 16.6973 101.061 15.2298C101.061 13.8102 100.414 12.8702 98.9485 12.7743Z" fill="#826F8C"/>
<path d="M113.603 39.89C113.669 38.3937 112.756 37.4058 111.271 37.3674C109.882 37.3291 108.95 38.2307 108.873 39.6119C108.797 41.1178 109.73 41.9618 111.205 42.1729C112.585 42.029 113.536 41.2712 113.603 39.89Z" fill="#826F8C"/>
<path d="M111.243 49.453C109.863 49.4338 108.921 50.3354 108.826 51.707C108.731 53.2129 109.644 54.2201 111.11 54.3064C112.594 54.3927 113.432 53.424 113.688 51.9181C113.527 50.4601 112.737 49.4722 111.243 49.453Z" fill="#826F8C"/>
<path d="M98.8249 24.6872C97.3405 24.7448 96.4555 25.608 96.2938 27.0756C96.1415 28.3992 97.4927 29.79 98.8154 29.6845C100.29 29.5694 101.08 28.6486 101.261 27.3058C101.27 25.9245 100.081 24.6393 98.8249 24.6872Z" fill="#826F8C"/>
<path d="M111.3 74.0749C109.816 74.1228 108.931 74.9861 108.75 76.4536C108.598 77.7677 109.949 79.1681 111.262 79.0722C112.737 78.9571 113.527 78.0458 113.717 76.703C113.736 75.3218 112.556 74.0365 111.3 74.0749Z" fill="#826F8C"/>
<path d="M111.186 66.4879C112.661 66.5166 113.555 65.5767 113.717 64.1091C113.86 62.7855 112.508 61.3947 111.186 61.5098C109.711 61.6345 108.921 62.5457 108.731 64.0132C108.921 65.4711 109.711 66.4591 111.186 66.4879Z" fill="#826F8C"/>
<path d="M96.2471 39.7558C96.2376 41.2425 97.1607 42.2113 98.6166 42.288C100.196 42.3743 101.214 41.4343 101.29 39.8517C101.367 38.2499 100.358 37.4058 98.8164 37.1564C97.2748 37.3483 96.2662 38.154 96.2471 39.7558Z" fill="#826F8C"/>
<path d="M98.7019 49.3187C97.1318 49.3763 96.1802 50.3738 96.2278 51.9564C96.2754 53.5391 97.265 54.4886 98.8446 54.4503C100.424 54.4119 101.214 53.3664 101.376 51.803C101.119 50.2683 100.291 49.2612 98.7019 49.3187Z" fill="#826F8C"/>
<path d="M98.7677 61.4234C97.1786 61.433 96.2841 62.3634 96.1889 63.9556C96.1033 65.4807 97.3689 66.7181 98.8724 66.6126C100.471 66.4975 101.251 65.5287 101.385 63.9365C101.185 62.4018 100.376 61.4042 98.7677 61.4234Z" fill="#826F8C"/>
<path d="M96.189 76.5016C96.2081 78.1034 97.0645 79.0434 98.6441 79.1777C100.148 79.3024 101.413 78.065 101.347 76.5496C101.28 74.9286 100.338 74.1324 99.0628 73.9694C97.3595 73.9502 96.1795 75.0628 96.189 76.5016Z" fill="#826F8C"/>
</g>
<g clip-path="url(#clip1_39_3065)">
<path d="M49.6143 78.7557C50.9274 78.6118 51.8029 77.95 51.8029 76.5879C51.8124 75.2451 50.9845 74.4298 49.6523 74.4394C48.4153 74.4394 47.635 75.2163 47.5684 76.4441C47.4923 77.8061 48.3296 78.5255 49.6143 78.7557Z" fill="#826F8C"/>
<path d="M47.7301 27.0084C47.8252 25.8765 48.615 25.138 49.7569 25.2051C50.9845 25.2723 51.7457 26.0972 51.6411 27.3537C51.5459 28.4855 50.7561 29.0898 49.6237 29.1953C48.4057 28.9747 47.6254 28.2745 47.7301 27.0084Z" fill="#826F8C"/>
<path d="M61.6042 0.957311C62.8413 0.899761 63.6501 1.6671 63.6882 2.91402C63.7167 4.06502 62.9745 4.84195 61.8516 4.8995C60.6051 4.96665 59.9199 4.17053 59.7296 2.95239C59.8533 1.80138 60.4718 1.01486 61.6042 0.957311Z" fill="#826F8C"/>
<path d="M51.5174 15.153C51.4603 16.352 50.7086 16.9755 49.5476 16.8987C48.4724 16.8316 47.8538 16.1506 47.8633 15.0667C47.8633 13.8677 48.5675 13.2635 49.7284 13.1867C50.8989 13.3114 51.5745 13.9637 51.5174 15.153Z" fill="#826F8C"/>
<path d="M37.6814 74.6696C38.8519 74.6887 39.5561 75.4177 39.5465 76.5879C39.537 77.7677 38.8138 78.4775 37.6434 78.4679C36.4729 78.4583 35.8544 77.7197 35.7593 76.5495C35.8639 75.3793 36.5015 74.66 37.6814 74.6696Z" fill="#826F8C"/>
<path d="M23.5411 51.8605C23.5696 50.8725 24.1881 50.2299 25.1587 50.2299C26.2435 50.2299 26.9001 50.9205 26.8335 52.014C26.7669 52.9827 26.0913 53.5007 25.0255 53.587C24.1976 53.3568 23.5125 52.8676 23.5411 51.8605Z" fill="#826F8C"/>
<path d="M25.0159 74.8806C26.1102 74.7751 26.8049 75.3985 26.881 76.5016C26.9476 77.5087 26.3386 78.1705 25.368 78.2664C24.2642 78.3815 23.6647 77.7101 23.4744 76.6742C23.5315 75.6479 24.0358 74.9669 25.0159 74.8806Z" fill="#826F8C"/>
<path d="M26.7956 39.7941C26.786 40.6957 26.1865 41.3096 25.3111 41.3671C24.3119 41.4343 23.6458 40.8108 23.5983 39.8229C23.5412 38.8157 24.2168 38.2786 25.1874 38.106C26.1485 38.2498 26.8051 38.7774 26.7956 39.7941Z" fill="#826F8C"/>
<path d="M26.8811 63.9845C26.8716 65.0875 26.2055 65.7397 25.1112 65.7014C24.131 65.663 23.5125 65.0204 23.5125 64.0228C23.5125 62.9102 24.2072 62.3634 25.2729 62.2579C26.234 62.4498 26.8811 62.9773 26.8811 63.9845Z" fill="#826F8C"/>
<path d="M37.5293 1.37933C38.5094 1.31219 39.1565 1.92606 39.1946 2.914C39.2231 3.80603 38.6331 4.4199 37.7767 4.47745C36.7966 4.54459 36.2447 3.92113 36.0734 2.90441C36.1971 2.06993 36.6634 1.43688 37.5293 1.37933Z" fill="#826F8C"/>
<path d="M51.4033 2.86606C51.4319 3.94993 50.8229 4.62135 49.7476 4.65971C48.6723 4.69808 48.0157 4.08421 47.9681 2.99076C47.9206 1.8973 48.5676 1.3218 49.7476 1.13956C50.6421 1.29302 51.3843 1.74383 51.4033 2.86606Z" fill="#826F8C"/>
<path d="M39.2991 15.0475C39.2991 16.0355 38.6805 16.6877 37.7099 16.7165C36.6251 16.7357 35.959 16.0547 36.0066 14.9612C36.0447 13.9829 36.7203 13.4649 37.6909 13.3594C38.652 13.5321 39.2991 14.0596 39.2991 15.0475Z" fill="#826F8C"/>
<path d="M39.3753 27.0947C39.4229 28.1785 38.8234 28.8596 37.7481 28.9171C36.6728 28.9747 36.0067 28.3608 35.9401 27.2769C35.8735 26.1835 36.5206 25.5984 37.5483 25.4257C38.6236 25.4833 39.3182 26.0012 39.3753 27.0947Z" fill="#826F8C"/>
<path d="M26.7194 27.3825C26.6147 28.2553 25.9867 28.8212 25.1112 28.7445C24.1501 28.6582 23.5507 28.0059 23.6744 27.0084C23.779 26.1355 24.4071 25.6751 25.273 25.6176C26.2246 25.819 26.8431 26.3753 26.7194 27.3825Z" fill="#826F8C"/>
<path d="M25.0351 13.7047C25.8439 13.6279 26.4244 13.9924 26.5195 14.8461C26.6147 15.7573 26.2055 16.3616 25.2444 16.4095C24.4165 16.4479 23.9407 15.9971 23.8456 15.1626C23.8361 14.3377 24.1977 13.791 25.0351 13.7047Z" fill="#826F8C"/>
<path d="M23.9503 3.12502C23.8266 2.30013 24.2833 1.75341 25.0922 1.66708C25.8154 1.59035 26.3197 2.03157 26.4244 2.73176C26.5481 3.56624 26.0723 4.03623 25.3015 4.20888C24.5593 4.19929 24.0549 3.83481 23.9503 3.12502Z" fill="#826F8C"/>
<path d="M11.8177 52.0331C11.7511 51.2179 12.1127 50.6328 12.9596 50.5464C13.8731 50.4505 14.4631 50.8726 14.5012 51.8509C14.5297 52.6854 14.0825 53.165 13.2641 53.2513C12.4267 53.2513 11.8938 52.8772 11.8177 52.0331Z" fill="#826F8C"/>
<path d="M13.0356 62.6608C13.854 62.6032 14.4154 62.9965 14.4915 63.8405C14.5677 64.7613 14.1299 65.3464 13.1688 65.3656C12.3315 65.3848 11.8842 64.9148 11.7986 63.9652C11.8366 63.265 12.1887 62.7087 13.0356 62.6608Z" fill="#826F8C"/>
<path d="M11.9127 27.3537C11.8176 26.5288 12.2743 25.9917 13.1022 25.9341C13.8349 25.8766 14.3202 26.337 14.4059 27.0372C14.501 27.862 14.0157 28.332 13.2354 28.4855C12.4837 28.4471 11.9889 28.0539 11.9127 27.3537Z" fill="#826F8C"/>
<path d="M13.0737 75.2163C13.8921 75.1779 14.4345 75.5808 14.4915 76.4249C14.5582 77.3553 14.0919 77.9116 13.1308 77.9116C12.2934 77.9116 11.8557 77.432 11.7986 76.5783C11.8271 75.7726 12.2268 75.2643 13.0737 75.2163Z" fill="#826F8C"/>
<path d="M11.8557 39.7078C11.8747 38.9501 12.2934 38.4897 13.0356 38.4417C13.873 38.3842 14.4059 38.8158 14.4439 39.6791C14.482 40.5423 14.0062 40.9931 13.0451 41.0795C12.3505 40.9835 11.8366 40.5903 11.8557 39.7078Z" fill="#826F8C"/>
<path d="M14.2632 14.99C14.3108 15.6422 13.8826 16.1026 13.2736 16.1601C12.5409 16.2273 12.0556 15.7669 12.0556 15.0187C12.0651 14.3857 12.5123 14.0212 13.2165 13.9157C13.7589 14.0308 14.2157 14.3473 14.2632 14.99Z" fill="#826F8C"/>
<path d="M1.18863 65.1259C0.541563 65.1738 0.0848086 64.7422 0.0277145 64.1283C-0.0388954 63.3898 0.41786 62.9006 1.16008 62.9006C1.78812 62.9102 2.14972 63.361 2.24487 63.994C2.17826 64.6367 1.81667 65.0683 1.18863 65.1259Z" fill="#826F8C"/>
<path d="M1.00782 75.4657C1.65489 75.3794 2.12116 75.8014 2.2068 76.4057C2.31147 77.1442 1.86424 77.643 1.13153 77.6814C0.493973 77.7102 0.132373 77.2593 -0.000846863 76.6167C0.0372159 75.9836 0.398811 75.5424 1.00782 75.4657Z" fill="#826F8C"/>
<path d="M13.1878 2.05076C13.6636 2.06035 13.9776 2.32892 14.0252 2.8085C14.0728 3.37441 13.8159 3.76768 13.2259 3.80604C12.6454 3.84441 12.3314 3.53747 12.2743 2.9332C12.3124 2.35769 12.5978 2.03158 13.1878 2.05076Z" fill="#826F8C"/>
<path d="M1.22667 38.8733C1.71198 38.9117 1.9689 39.2186 1.98793 39.6982C2.00696 40.2833 1.70246 40.6286 1.11248 40.619C0.522508 40.619 0.246553 40.2737 0.237038 39.7078C0.313164 39.1035 0.655731 38.8254 1.22667 38.8733Z" fill="#826F8C"/>
<path d="M0.18942 52.0332C0.122809 51.3713 0.427319 50.9397 1.13149 50.9301C1.71195 50.9301 2.03548 51.2466 2.06403 51.8317C2.09258 52.4168 1.79759 52.743 1.15052 52.8389C0.665211 52.8389 0.246514 52.6279 0.18942 52.0332Z" fill="#826F8C"/>
<path d="M47.6063 51.966C47.5683 50.6327 48.3771 49.7887 49.7093 49.7791C50.9368 49.7695 51.7267 50.5656 51.7742 51.7933C51.8218 53.1458 50.9654 53.846 49.6998 54.0378C48.4723 53.8556 47.6349 53.2033 47.6063 51.966Z" fill="#826F8C"/>
<path d="M51.7364 39.6119C51.8315 40.8492 51.0703 41.7029 49.8808 41.8084C48.5581 41.9331 47.6922 41.1082 47.6446 39.7845C47.597 38.5472 48.4249 37.8758 49.6144 37.636C50.8134 37.7511 51.6412 38.3937 51.7364 39.6119Z" fill="#826F8C"/>
<path d="M37.7197 37.9046C38.795 37.9333 39.442 38.576 39.4801 39.6503C39.5182 40.83 38.8711 41.559 37.6911 41.5878C36.5112 41.6165 35.8927 40.9164 35.7975 39.7366C35.9117 38.5568 36.5397 37.8758 37.7197 37.9046Z" fill="#826F8C"/>
<path d="M35.7687 64.0324C35.7592 62.8526 36.4634 62.1236 37.6338 62.1141C38.8043 62.0949 39.5275 62.8142 39.537 63.994C39.556 65.1738 38.8423 65.8165 37.6148 65.9507C36.5205 65.826 35.7783 65.2218 35.7687 64.0324Z" fill="#826F8C"/>
<path d="M37.6719 49.9805C38.8424 49.9997 39.5465 50.7191 39.537 51.8989C39.5275 53.0787 38.8043 53.7884 37.6339 53.7789C36.4634 53.7693 35.8449 53.0307 35.7497 51.8605C35.8639 50.6807 36.5015 49.9709 37.6719 49.9805Z" fill="#826F8C"/>
<path d="M59.6628 15.1147C59.6247 13.8773 60.405 13.0524 61.604 12.9949C62.9267 12.9373 63.7736 13.7718 63.7641 15.1051C63.7546 16.3328 62.9172 16.9946 61.7182 17.1769C60.5287 17.0042 59.7009 16.352 59.6628 15.1147Z" fill="#826F8C"/>
<path d="M75.8398 2.82769C75.8778 4.17053 75.0785 5.0146 73.7463 5.02419C72.5283 5.04337 71.729 4.25685 71.6719 3.02912C71.6148 1.67668 72.4617 0.97649 73.851 0.765472C74.9262 0.986082 75.8017 1.58077 75.8398 2.82769Z" fill="#826F8C"/>
<path d="M47.6064 64.1763C47.5113 62.843 48.3106 61.9606 49.6333 61.9126C50.956 61.8742 51.7838 62.7183 51.7743 64.0611C51.7648 65.2985 50.9465 65.9603 49.757 66.1617C48.5295 66.0371 47.6921 65.3944 47.6064 64.1763Z" fill="#826F8C"/>
<path d="M61.7943 25.0517C63.0219 25.09 63.8022 25.867 63.8402 27.0947C63.8783 28.4375 63.0885 29.2816 61.7563 29.3104C60.405 29.3392 59.7294 28.4759 59.5581 27.1618C59.7485 25.8574 60.4431 25.0133 61.7943 25.0517Z" fill="#826F8C"/>
<path d="M61.6518 37.5593C63.003 37.5305 63.8309 38.2595 63.888 39.6311C63.9451 41.0986 63.1553 41.9427 61.6803 41.9427C60.3101 41.9427 59.6344 41.1082 59.5107 39.7654C59.6154 38.4225 60.2815 37.588 61.6518 37.5593Z" fill="#826F8C"/>
<path d="M73.6796 12.8702C75.145 12.851 75.9633 13.6759 75.9158 15.153C75.8777 16.5246 75.0689 17.2728 73.7081 17.2536C72.3378 17.2344 71.6622 16.4287 71.529 14.9612C71.6812 13.7622 72.2998 12.8894 73.6796 12.8702Z" fill="#826F8C"/>
<path d="M86.2501 0.736695C87.6108 0.76547 88.3911 1.5424 88.3911 2.91401C88.3911 4.40073 87.5347 5.18725 86.0788 5.12011C84.7085 5.05296 84.071 4.18971 84.0139 2.8181C84.1756 1.49444 84.8893 0.70792 86.2501 0.736695Z" fill="#826F8C"/>
<path d="M61.6804 61.7592C63.0221 61.7304 63.8595 62.4498 63.9451 63.8118C64.0403 65.2505 63.3361 66.1809 61.8612 66.2577C60.4148 66.3344 59.6059 65.5575 59.4537 64.0995C59.5203 62.6512 60.2054 61.7783 61.6804 61.7592Z" fill="#826F8C"/>
<path d="M63.9069 51.592C64.0402 53.0403 63.3741 53.9803 61.8896 54.0954C60.5574 54.2009 59.6629 53.5391 59.5202 52.1579C59.3679 50.6999 60.0816 49.8463 61.5565 49.6161C62.8507 49.6544 63.7832 50.2012 63.9069 51.592Z" fill="#826F8C"/>
<path d="M61.7564 74.3147C63.1076 74.3242 63.9069 75.082 63.9545 76.444C64.0116 77.902 63.2598 78.7748 61.7944 78.8228C60.329 78.8611 59.5677 78.0458 59.4631 76.5879C59.5487 75.1395 60.2909 74.3051 61.7564 74.3147Z" fill="#826F8C"/>
<path d="M75.9921 27.1523C76.0111 28.5047 75.2974 29.3488 73.9462 29.4351C72.5188 29.531 71.5958 28.8116 71.5196 27.3249C71.4435 25.867 72.2143 25.0517 73.6607 24.9078C75.1071 24.9654 75.9635 25.6656 75.9921 27.1523Z" fill="#826F8C"/>
<path d="M86.0408 12.7743C87.4681 12.6784 88.3912 13.4073 88.4863 14.8749C88.5815 16.3136 87.8583 17.244 86.4024 17.3399C84.975 17.4358 84.1186 16.6973 83.9283 15.2298C83.9283 13.8102 84.5753 12.8702 86.0408 12.7743Z" fill="#826F8C"/>
<path d="M71.3864 39.89C71.3198 38.3937 72.2333 37.4058 73.7178 37.3674C75.1071 37.3291 76.0397 38.2307 76.1158 39.6119C76.1919 41.1178 75.2594 41.9618 73.7844 42.1729C72.4046 42.029 71.4531 41.2712 71.3864 39.89Z" fill="#826F8C"/>
<path d="M73.7461 49.453C75.1259 49.4338 76.068 50.3354 76.1631 51.707C76.2583 53.2129 75.3448 54.2201 73.8794 54.3064C72.3949 54.3927 71.5575 53.424 71.3006 51.9181C71.4624 50.4601 72.2522 49.4722 73.7461 49.453Z" fill="#826F8C"/>
<path d="M86.1643 24.6872C87.6488 24.7448 88.5337 25.608 88.6955 27.0756C88.8478 28.3992 87.4965 29.79 86.1738 29.6845C84.6989 29.5694 83.9091 28.6486 83.7283 27.3058C83.7188 25.9245 84.9082 24.6393 86.1643 24.6872Z" fill="#826F8C"/>
<path d="M73.6892 74.0749C75.1737 74.1228 76.0586 74.9861 76.2394 76.4536C76.3917 77.7677 75.0405 79.1681 73.7273 79.0722C72.2523 78.9571 71.4625 78.0458 71.2722 76.703C71.2532 75.3218 72.4331 74.0365 73.6892 74.0749Z" fill="#826F8C"/>
<path d="M73.8035 66.4879C72.3285 66.5166 71.4341 65.5767 71.2723 64.1091C71.1295 62.7855 72.4808 61.3947 73.8035 61.5098C75.2784 61.6345 76.0682 62.5457 76.2585 64.0132C76.0682 65.4711 75.2784 66.4591 73.8035 66.4879Z" fill="#826F8C"/>
<path d="M88.7421 39.7558C88.7516 41.2425 87.8286 42.2112 86.3727 42.288C84.7931 42.3743 83.7749 41.4343 83.6988 39.8517C83.6226 38.2499 84.6313 37.4058 86.1729 37.1564C87.7144 37.3482 88.7231 38.1539 88.7421 39.7558Z" fill="#826F8C"/>
<path d="M86.2874 49.3187C87.8575 49.3762 88.8091 50.3738 88.7615 51.9564C88.7139 53.539 87.7243 54.4886 86.1446 54.4503C84.565 54.4119 83.7752 53.3664 83.6134 51.8029C83.8704 50.2683 84.6982 49.2611 86.2874 49.3187Z" fill="#826F8C"/>
<path d="M86.2211 61.4234C87.8102 61.433 88.7047 62.3634 88.7998 63.9556C88.8855 65.4807 87.6199 66.7181 86.1164 66.6126C84.5178 66.4975 83.7375 65.5287 83.6042 63.9365C83.8041 62.4018 84.6129 61.4042 86.2211 61.4234Z" fill="#826F8C"/>
<path d="M88.8002 76.5016C88.7812 78.1034 87.9248 79.0434 86.3452 79.1777C84.8417 79.3024 83.5761 78.065 83.6427 76.5496C83.7093 74.9286 84.6514 74.1324 85.9265 73.9694C87.6298 73.9502 88.8098 75.0628 88.8002 76.5016Z" fill="#826F8C"/>
</g>
<g clip-path="url(#clip2_39_3065)">
<path d="M135.375 86.9883C134.062 87.1322 133.186 87.7941 133.186 89.1561C133.177 90.4989 134.005 91.3142 135.337 91.3046C136.574 91.3046 137.354 90.5277 137.421 89.3C137.497 87.9379 136.66 87.2186 135.375 86.9883Z" fill="#826F8C"/>
<path d="M137.259 138.736C137.164 139.867 136.374 140.606 135.232 140.539C134.005 140.472 133.243 139.647 133.348 138.39C133.443 137.259 134.233 136.654 135.365 136.549C136.583 136.769 137.364 137.47 137.259 138.736Z" fill="#826F8C"/>
<path d="M123.385 164.787C122.148 164.844 121.339 164.077 121.301 162.83C121.273 161.679 122.015 160.902 123.138 160.844C124.384 160.777 125.069 161.573 125.26 162.792C125.136 163.943 124.517 164.729 123.385 164.787Z" fill="#826F8C"/>
<path d="M133.472 150.591C133.529 149.392 134.281 148.769 135.442 148.845C136.517 148.912 137.135 149.593 137.126 150.677C137.126 151.876 136.422 152.481 135.261 152.557C134.09 152.433 133.415 151.78 133.472 150.591Z" fill="#826F8C"/>
<path d="M147.308 91.0744C146.137 91.0552 145.433 90.3263 145.442 89.1561C145.452 87.9763 146.175 87.2665 147.346 87.2761C148.516 87.2857 149.135 88.0243 149.23 89.1945C149.125 90.3646 148.488 91.084 147.308 91.0744Z" fill="#826F8C"/>
<path d="M161.448 113.884C161.42 114.871 160.801 115.514 159.831 115.514C158.746 115.514 158.089 114.823 158.156 113.73C158.222 112.761 158.898 112.243 159.964 112.157C160.792 112.387 161.477 112.876 161.448 113.884Z" fill="#826F8C"/>
<path d="M159.973 90.8635C158.879 90.969 158.184 90.3455 158.108 89.2425C158.041 88.2353 158.65 87.5735 159.621 87.4776C160.725 87.3625 161.324 88.0339 161.515 89.0698C161.458 90.0961 160.953 90.7771 159.973 90.8635Z" fill="#826F8C"/>
<path d="M158.194 125.95C158.203 125.048 158.803 124.434 159.678 124.377C160.677 124.31 161.343 124.933 161.391 125.921C161.448 126.928 160.772 127.465 159.802 127.638C158.841 127.494 158.184 126.967 158.194 125.95Z" fill="#826F8C"/>
<path d="M158.108 101.76C158.118 100.657 158.784 100.004 159.878 100.043C160.858 100.081 161.477 100.724 161.477 101.721C161.477 102.834 160.782 103.381 159.716 103.486C158.755 103.294 158.108 102.767 158.108 101.76Z" fill="#826F8C"/>
<path d="M147.46 164.365C146.48 164.432 145.833 163.818 145.795 162.83C145.766 161.938 146.356 161.324 147.213 161.267C148.193 161.199 148.745 161.823 148.916 162.84C148.792 163.674 148.326 164.307 147.46 164.365Z" fill="#826F8C"/>
<path d="M133.586 162.878C133.557 161.794 134.166 161.123 135.242 161.084C136.317 161.046 136.974 161.66 137.021 162.753C137.069 163.847 136.422 164.422 135.242 164.604C134.347 164.451 133.605 164 133.586 162.878Z" fill="#826F8C"/>
<path d="M145.69 150.696C145.69 149.709 146.308 149.056 147.279 149.028C148.364 149.008 149.03 149.689 148.982 150.783C148.944 151.761 148.269 152.279 147.298 152.385C146.337 152.212 145.69 151.684 145.69 150.696Z" fill="#826F8C"/>
<path d="M145.614 138.649C145.566 137.565 146.166 136.884 147.241 136.827C148.316 136.769 148.983 137.383 149.049 138.467C149.116 139.561 148.469 140.146 147.441 140.318C146.366 140.261 145.671 139.743 145.614 138.649Z" fill="#826F8C"/>
<path d="M158.27 138.362C158.375 137.489 159.003 136.923 159.878 137C160.839 137.086 161.439 137.738 161.315 138.736C161.21 139.608 160.582 140.069 159.716 140.126C158.765 139.925 158.146 139.369 158.27 138.362Z" fill="#826F8C"/>
<path d="M159.954 152.039C159.145 152.116 158.565 151.752 158.47 150.898C158.375 149.987 158.784 149.382 159.745 149.334C160.573 149.296 161.048 149.747 161.144 150.581C161.153 151.406 160.792 151.953 159.954 152.039Z" fill="#826F8C"/>
<path d="M161.039 162.619C161.163 163.444 160.706 163.991 159.897 164.077C159.174 164.154 158.67 163.712 158.565 163.012C158.441 162.178 158.917 161.708 159.688 161.535C160.43 161.545 160.934 161.909 161.039 162.619Z" fill="#826F8C"/>
<path d="M173.172 113.711C173.238 114.526 172.877 115.111 172.03 115.198C171.116 115.294 170.526 114.871 170.488 113.893C170.46 113.059 170.907 112.579 171.725 112.493C172.563 112.493 173.095 112.867 173.172 113.711Z" fill="#826F8C"/>
<path d="M171.954 103.083C171.135 103.141 170.574 102.748 170.498 101.903C170.422 100.983 170.859 100.398 171.82 100.378C172.658 100.359 173.105 100.829 173.191 101.779C173.153 102.479 172.801 103.035 171.954 103.083Z" fill="#826F8C"/>
<path d="M173.076 138.39C173.171 139.215 172.715 139.752 171.887 139.81C171.154 139.867 170.669 139.407 170.583 138.707C170.488 137.882 170.973 137.412 171.754 137.259C172.505 137.297 173 137.69 173.076 138.39Z" fill="#826F8C"/>
<path d="M171.916 90.5277C171.097 90.5661 170.555 90.1632 170.498 89.3192C170.431 88.3888 170.897 87.8325 171.858 87.8325C172.696 87.8325 173.134 88.312 173.191 89.1657C173.162 89.9714 172.762 90.4798 171.916 90.5277Z" fill="#826F8C"/>
<path d="M173.133 126.036C173.114 126.794 172.696 127.254 171.953 127.302C171.116 127.36 170.583 126.928 170.545 126.065C170.507 125.202 170.983 124.751 171.944 124.665C172.639 124.76 173.152 125.154 173.133 126.036Z" fill="#826F8C"/>
<path d="M170.726 150.754C170.678 150.102 171.107 149.641 171.716 149.584C172.448 149.517 172.934 149.977 172.934 150.725C172.924 151.358 172.477 151.723 171.773 151.828C171.23 151.713 170.774 151.397 170.726 150.754Z" fill="#826F8C"/>
<path d="M183.801 100.618C184.448 100.57 184.904 101.002 184.962 101.616C185.028 102.354 184.571 102.843 183.829 102.843C183.201 102.834 182.84 102.383 182.744 101.75C182.811 101.107 183.173 100.676 183.801 100.618Z" fill="#826F8C"/>
<path d="M183.981 90.2783C183.334 90.3646 182.868 89.9426 182.782 89.3383C182.678 88.5997 183.125 88.101 183.858 88.0626C184.495 88.0338 184.857 88.4846 184.99 89.1273C184.952 89.7603 184.59 90.2016 183.981 90.2783Z" fill="#826F8C"/>
<path d="M171.801 163.693C171.325 163.684 171.011 163.415 170.964 162.936C170.916 162.37 171.173 161.976 171.763 161.938C172.344 161.9 172.658 162.207 172.715 162.811C172.677 163.386 172.391 163.712 171.801 163.693Z" fill="#826F8C"/>
<path d="M183.763 126.871C183.277 126.832 183.02 126.525 183.001 126.046C182.982 125.461 183.287 125.115 183.877 125.125C184.467 125.125 184.743 125.47 184.752 126.036C184.676 126.64 184.334 126.919 183.763 126.871Z" fill="#826F8C"/>
<path d="M184.8 113.711C184.866 114.373 184.562 114.804 183.858 114.814C183.277 114.814 182.954 114.497 182.925 113.912C182.897 113.327 183.192 113.001 183.839 112.905C184.324 112.905 184.743 113.116 184.8 113.711Z" fill="#826F8C"/>
<path d="M137.383 113.778C137.421 115.111 136.612 115.955 135.28 115.965C134.052 115.975 133.262 115.178 133.215 113.951C133.167 112.598 134.024 111.898 135.289 111.706C136.517 111.888 137.354 112.541 137.383 113.778Z" fill="#826F8C"/>
<path d="M133.253 126.132C133.158 124.895 133.919 124.041 135.108 123.936C136.431 123.811 137.297 124.636 137.345 125.959C137.392 127.197 136.564 127.868 135.375 128.108C134.176 127.993 133.348 127.35 133.253 126.132Z" fill="#826F8C"/>
<path d="M147.27 127.839C146.194 127.811 145.547 127.168 145.509 126.094C145.471 124.914 146.118 124.185 147.298 124.156C148.478 124.127 149.097 124.828 149.192 126.007C149.078 127.187 148.45 127.868 147.27 127.839Z" fill="#826F8C"/>
<path d="M149.22 101.712C149.23 102.891 148.526 103.62 147.355 103.63C146.185 103.649 145.462 102.93 145.452 101.75C145.433 100.57 146.147 99.9275 147.374 99.7933C148.469 99.918 149.211 100.522 149.22 101.712Z" fill="#826F8C"/>
<path d="M147.317 115.763C146.147 115.744 145.442 115.025 145.452 113.845C145.462 112.665 146.185 111.956 147.355 111.965C148.526 111.975 149.144 112.713 149.239 113.884C149.125 115.063 148.488 115.773 147.317 115.763Z" fill="#826F8C"/>
<path d="M125.326 150.629C125.364 151.867 124.584 152.692 123.385 152.749C122.062 152.807 121.215 151.972 121.225 150.639C121.234 149.411 122.072 148.749 123.271 148.567C124.46 148.74 125.288 149.392 125.326 150.629Z" fill="#826F8C"/>
<path d="M109.149 162.916C109.111 161.573 109.911 160.729 111.243 160.72C112.461 160.701 113.26 161.487 113.317 162.715C113.374 164.067 112.528 164.768 111.138 164.979C110.063 164.758 109.188 164.163 109.149 162.916Z" fill="#826F8C"/>
<path d="M137.383 101.568C137.478 102.901 136.679 103.783 135.356 103.831C134.033 103.87 133.205 103.026 133.215 101.683C133.224 100.446 134.043 99.7837 135.232 99.5823C136.46 99.7069 137.297 100.35 137.383 101.568Z" fill="#826F8C"/>
<path d="M123.195 140.692C121.967 140.654 121.187 139.877 121.149 138.649C121.111 137.306 121.901 136.462 123.233 136.434C124.584 136.405 125.26 137.268 125.431 138.582C125.241 139.887 124.546 140.731 123.195 140.692Z" fill="#826F8C"/>
<path d="M123.337 128.185C121.986 128.214 121.158 127.485 121.101 126.113C121.044 124.645 121.834 123.801 123.309 123.801C124.679 123.801 125.355 124.636 125.479 125.979C125.374 127.322 124.708 128.156 123.337 128.185Z" fill="#826F8C"/>
<path d="M111.309 152.874C109.844 152.893 109.026 152.068 109.073 150.591C109.111 149.219 109.92 148.471 111.281 148.49C112.651 148.51 113.327 149.315 113.46 150.783C113.308 151.982 112.689 152.855 111.309 152.874Z" fill="#826F8C"/>
<path d="M98.7392 165.007C97.3784 164.979 96.5981 164.202 96.5981 162.83C96.5981 161.343 97.4546 160.557 98.9105 160.624C100.281 160.691 100.918 161.554 100.975 162.926C100.814 164.25 100.1 165.036 98.7392 165.007Z" fill="#826F8C"/>
<path d="M123.309 103.985C121.967 104.014 121.13 103.294 121.044 101.932C120.949 100.493 121.653 99.5631 123.128 99.4863C124.574 99.4096 125.383 100.187 125.536 101.644C125.469 103.093 124.784 103.966 123.309 103.985Z" fill="#826F8C"/>
<path d="M121.082 114.152C120.949 112.704 121.615 111.764 123.1 111.649C124.432 111.543 125.326 112.205 125.469 113.586C125.621 115.044 124.908 115.898 123.433 116.128C122.139 116.09 121.206 115.543 121.082 114.152Z" fill="#826F8C"/>
<path d="M123.233 91.4293C121.881 91.4197 121.082 90.662 121.035 89.3C120.977 87.842 121.729 86.9692 123.195 86.9212C124.66 86.8828 125.421 87.6981 125.526 89.1561C125.44 90.6044 124.698 91.4389 123.233 91.4293Z" fill="#826F8C"/>
<path d="M108.997 138.592C108.978 137.239 109.692 136.395 111.043 136.309C112.47 136.213 113.393 136.932 113.47 138.419C113.546 139.877 112.775 140.692 111.329 140.836C109.882 140.779 109.026 140.078 108.997 138.592Z" fill="#826F8C"/>
<path d="M98.9485 152.97C97.5211 153.066 96.5981 152.337 96.5029 150.869C96.4078 149.43 97.131 148.5 98.5869 148.404C100.014 148.308 100.871 149.047 101.061 150.514C101.061 151.934 100.414 152.874 98.9485 152.97Z" fill="#826F8C"/>
<path d="M113.603 125.854C113.669 127.35 112.756 128.338 111.271 128.377C109.882 128.415 108.95 127.513 108.873 126.132C108.797 124.626 109.73 123.782 111.205 123.571C112.585 123.715 113.536 124.473 113.603 125.854Z" fill="#826F8C"/>
<path d="M111.243 116.291C109.863 116.31 108.921 115.409 108.826 114.037C108.731 112.531 109.644 111.524 111.11 111.438C112.594 111.351 113.432 112.32 113.688 113.826C113.527 115.284 112.737 116.272 111.243 116.291Z" fill="#826F8C"/>
<path d="M98.8249 141.057C97.3405 140.999 96.4555 140.136 96.2938 138.668C96.1415 137.345 97.4927 135.954 98.8154 136.06C100.29 136.175 101.08 137.095 101.261 138.438C101.27 139.819 100.081 141.105 98.8249 141.057Z" fill="#826F8C"/>
<path d="M111.3 91.6691C109.816 91.6212 108.931 90.7579 108.75 89.2904C108.598 87.9763 109.949 86.5759 111.262 86.6718C112.737 86.7869 113.527 87.6981 113.717 89.041C113.736 90.4222 112.556 91.7075 111.3 91.6691Z" fill="#826F8C"/>
<path d="M111.186 99.2562C112.661 99.2274 113.555 100.167 113.717 101.635C113.86 102.959 112.508 104.349 111.186 104.234C109.711 104.11 108.921 103.198 108.731 101.731C108.921 100.273 109.711 99.2849 111.186 99.2562Z" fill="#826F8C"/>
<path d="M96.2471 125.988C96.2376 124.502 97.1607 123.533 98.6166 123.456C100.196 123.37 101.214 124.31 101.29 125.892C101.367 127.494 100.358 128.338 98.8164 128.588C97.2748 128.396 96.2662 127.59 96.2471 125.988Z" fill="#826F8C"/>
<path d="M98.7019 116.425C97.1318 116.368 96.1802 115.37 96.2278 113.788C96.2754 112.205 97.265 111.255 98.8446 111.294C100.424 111.332 101.214 112.378 101.376 113.941C101.119 115.476 100.291 116.483 98.7019 116.425Z" fill="#826F8C"/>
<path d="M98.7677 104.321C97.1786 104.311 96.2841 103.381 96.1889 101.788C96.1033 100.263 97.3689 99.026 98.8724 99.1315C100.471 99.2466 101.251 100.215 101.385 101.808C101.185 103.342 100.376 104.34 98.7677 104.321Z" fill="#826F8C"/>
<path d="M96.189 89.2424C96.2081 87.6406 97.0645 86.7006 98.6441 86.5663C100.148 86.4416 101.413 87.6789 101.347 89.1944C101.28 90.8154 100.338 91.6115 99.0628 91.7746C97.3595 91.7938 96.1795 90.6811 96.189 89.2424Z" fill="#826F8C"/>
</g>
<g clip-path="url(#clip3_39_3065)">
<path d="M49.6143 86.9883C50.9274 87.1322 51.8029 87.7941 51.8029 89.1561C51.8124 90.4989 50.9845 91.3142 49.6523 91.3046C48.4153 91.3046 47.635 90.5277 47.5684 89.3C47.4923 87.9379 48.3296 87.2186 49.6143 86.9883Z" fill="#826F8C"/>
<path d="M47.7301 138.736C47.8252 139.867 48.615 140.606 49.7569 140.539C50.9845 140.472 51.7457 139.647 51.6411 138.39C51.5459 137.259 50.7561 136.654 49.6237 136.549C48.4057 136.769 47.6254 137.47 47.7301 138.736Z" fill="#826F8C"/>
<path d="M61.6042 164.787C62.8413 164.844 63.6501 164.077 63.6882 162.83C63.7167 161.679 62.9745 160.902 61.8516 160.844C60.6051 160.777 59.9199 161.573 59.7296 162.792C59.8533 163.943 60.4718 164.729 61.6042 164.787Z" fill="#826F8C"/>
<path d="M51.5174 150.591C51.4603 149.392 50.7086 148.769 49.5476 148.845C48.4724 148.912 47.8538 149.593 47.8633 150.677C47.8633 151.876 48.5675 152.481 49.7284 152.557C50.8989 152.433 51.5745 151.78 51.5174 150.591Z" fill="#826F8C"/>
<path d="M37.6814 91.0744C38.8519 91.0552 39.5561 90.3263 39.5465 89.1561C39.537 87.9763 38.8138 87.2665 37.6434 87.2761C36.4729 87.2857 35.8544 88.0243 35.7593 89.1945C35.8639 90.3646 36.5015 91.084 37.6814 91.0744Z" fill="#826F8C"/>
<path d="M23.5411 113.884C23.5696 114.871 24.1881 115.514 25.1587 115.514C26.2435 115.514 26.9001 114.823 26.8335 113.73C26.7669 112.761 26.0913 112.243 25.0255 112.157C24.1976 112.387 23.5125 112.876 23.5411 113.884Z" fill="#826F8C"/>
<path d="M25.0159 90.8635C26.1102 90.969 26.8049 90.3455 26.881 89.2425C26.9476 88.2353 26.3386 87.5735 25.368 87.4776C24.2642 87.3625 23.6647 88.0339 23.4744 89.0698C23.5315 90.0961 24.0358 90.7771 25.0159 90.8635Z" fill="#826F8C"/>
<path d="M26.7956 125.95C26.786 125.048 26.1865 124.434 25.3111 124.377C24.3119 124.31 23.6458 124.933 23.5983 125.921C23.5412 126.928 24.2168 127.465 25.1874 127.638C26.1485 127.494 26.8051 126.967 26.7956 125.95Z" fill="#826F8C"/>
<path d="M26.8811 101.76C26.8716 100.657 26.2055 100.004 25.1112 100.043C24.131 100.081 23.5125 100.724 23.5125 101.721C23.5125 102.834 24.2072 103.381 25.2729 103.486C26.234 103.294 26.8811 102.767 26.8811 101.76Z" fill="#826F8C"/>
<path d="M37.5293 164.365C38.5094 164.432 39.1565 163.818 39.1946 162.83C39.2231 161.938 38.6331 161.324 37.7767 161.267C36.7966 161.199 36.2447 161.823 36.0734 162.84C36.1971 163.674 36.6634 164.307 37.5293 164.365Z" fill="#826F8C"/>
<path d="M51.4033 162.878C51.4319 161.794 50.8229 161.123 49.7476 161.084C48.6723 161.046 48.0157 161.66 47.9681 162.753C47.9206 163.847 48.5676 164.422 49.7476 164.604C50.6421 164.451 51.3843 164 51.4033 162.878Z" fill="#826F8C"/>
<path d="M39.2991 150.696C39.2991 149.709 38.6805 149.056 37.7099 149.028C36.6251 149.008 35.959 149.689 36.0066 150.783C36.0447 151.761 36.7203 152.279 37.6909 152.385C38.652 152.212 39.2991 151.684 39.2991 150.696Z" fill="#826F8C"/>
<path d="M39.3753 138.649C39.4229 137.565 38.8234 136.884 37.7481 136.827C36.6728 136.769 36.0067 137.383 35.9401 138.467C35.8735 139.561 36.5206 140.146 37.5483 140.318C38.6236 140.261 39.3182 139.743 39.3753 138.649Z" fill="#826F8C"/>
<path d="M26.7194 138.362C26.6147 137.489 25.9867 136.923 25.1112 137C24.1501 137.086 23.5507 137.738 23.6744 138.736C23.779 139.608 24.4071 140.069 25.273 140.126C26.2246 139.925 26.8431 139.369 26.7194 138.362Z" fill="#826F8C"/>
<path d="M25.0351 152.039C25.8439 152.116 26.4244 151.752 26.5195 150.898C26.6147 149.987 26.2055 149.382 25.2444 149.334C24.4165 149.296 23.9407 149.747 23.8456 150.581C23.8361 151.406 24.1977 151.953 25.0351 152.039Z" fill="#826F8C"/>
<path d="M23.9503 162.619C23.8266 163.444 24.2833 163.991 25.0922 164.077C25.8154 164.154 26.3197 163.712 26.4244 163.012C26.5481 162.178 26.0723 161.708 25.3015 161.535C24.5593 161.545 24.0549 161.909 23.9503 162.619Z" fill="#826F8C"/>
<path d="M11.8177 113.711C11.7511 114.526 12.1127 115.111 12.9596 115.198C13.8731 115.293 14.4631 114.871 14.5012 113.893C14.5297 113.059 14.0825 112.579 13.2641 112.493C12.4267 112.493 11.8938 112.867 11.8177 113.711Z" fill="#826F8C"/>
<path d="M13.0356 103.083C13.854 103.141 14.4154 102.748 14.4915 101.903C14.5677 100.983 14.1299 100.398 13.1688 100.378C12.3315 100.359 11.8842 100.829 11.7986 101.779C11.8366 102.479 12.1887 103.035 13.0356 103.083Z" fill="#826F8C"/>
<path d="M11.9127 138.39C11.8176 139.215 12.2743 139.752 13.1022 139.81C13.8349 139.867 14.3202 139.407 14.4059 138.707C14.501 137.882 14.0157 137.412 13.2354 137.259C12.4837 137.297 11.9889 137.69 11.9127 138.39Z" fill="#826F8C"/>
<path d="M13.0737 90.5277C13.8921 90.5661 14.4345 90.1632 14.4915 89.3192C14.5582 88.3888 14.0919 87.8325 13.1308 87.8325C12.2934 87.8325 11.8557 88.312 11.7986 89.1657C11.8271 89.9714 12.2268 90.4798 13.0737 90.5277Z" fill="#826F8C"/>
<path d="M11.8557 126.036C11.8747 126.794 12.2934 127.254 13.0356 127.302C13.873 127.36 14.4059 126.928 14.4439 126.065C14.482 125.202 14.0062 124.751 13.0451 124.665C12.3505 124.76 11.8366 125.154 11.8557 126.036Z" fill="#826F8C"/>
<path d="M14.2632 150.754C14.3108 150.102 13.8826 149.641 13.2736 149.584C12.5409 149.517 12.0556 149.977 12.0556 150.725C12.0651 151.358 12.5123 151.723 13.2165 151.828C13.7589 151.713 14.2157 151.397 14.2632 150.754Z" fill="#826F8C"/>
<path d="M1.18863 100.618C0.541563 100.57 0.0848086 101.002 0.0277145 101.616C-0.0388954 102.354 0.41786 102.843 1.16008 102.843C1.78812 102.834 2.14972 102.383 2.24487 101.75C2.17826 101.107 1.81667 100.676 1.18863 100.618Z" fill="#826F8C"/>
<path d="M1.00782 90.2783C1.65489 90.3646 2.12116 89.9426 2.2068 89.3383C2.31147 88.5997 1.86424 88.101 1.13153 88.0626C0.493973 88.0338 0.132373 88.4846 -0.000846863 89.1273C0.0372159 89.7603 0.398811 90.2016 1.00782 90.2783Z" fill="#826F8C"/>
<path d="M13.1878 163.693C13.6636 163.684 13.9776 163.415 14.0252 162.936C14.0728 162.37 13.8159 161.976 13.2259 161.938C12.6454 161.9 12.3314 162.207 12.2743 162.811C12.3124 163.386 12.5978 163.712 13.1878 163.693Z" fill="#826F8C"/>
<path d="M1.22667 126.871C1.71198 126.832 1.9689 126.525 1.98793 126.046C2.00696 125.461 1.70246 125.115 1.11248 125.125C0.522508 125.125 0.246553 125.47 0.237038 126.036C0.313164 126.64 0.655731 126.919 1.22667 126.871Z" fill="#826F8C"/>
<path d="M0.18942 113.711C0.122809 114.373 0.427319 114.804 1.13149 114.814C1.71195 114.814 2.03548 114.497 2.06403 113.912C2.09258 113.327 1.79759 113.001 1.15052 112.905C0.665211 112.905 0.246514 113.116 0.18942 113.711Z" fill="#826F8C"/>
<path d="M47.6063 113.778C47.5683 115.111 48.3771 115.955 49.7093 115.965C50.9368 115.975 51.7267 115.178 51.7742 113.951C51.8218 112.598 50.9654 111.898 49.6998 111.706C48.4723 111.888 47.6349 112.541 47.6063 113.778Z" fill="#826F8C"/>
<path d="M51.7364 126.132C51.8315 124.895 51.0703 124.041 49.8808 123.936C48.5581 123.811 47.6922 124.636 47.6446 125.959C47.597 127.197 48.4249 127.868 49.6144 128.108C50.8134 127.993 51.6412 127.35 51.7364 126.132Z" fill="#826F8C"/>
<path d="M37.7197 127.839C38.795 127.811 39.442 127.168 39.4801 126.094C39.5182 124.914 38.8711 124.185 37.6911 124.156C36.5112 124.127 35.8927 124.828 35.7975 126.007C35.9117 127.187 36.5397 127.868 37.7197 127.839Z" fill="#826F8C"/>
<path d="M35.7687 101.712C35.7592 102.891 36.4634 103.62 37.6338 103.63C38.8043 103.649 39.5275 102.93 39.537 101.75C39.556 100.57 38.8423 99.9275 37.6148 99.7933C36.5205 99.918 35.7783 100.522 35.7687 101.712Z" fill="#826F8C"/>
<path d="M37.6719 115.763C38.8424 115.744 39.5465 115.025 39.537 113.845C39.5275 112.665 38.8043 111.956 37.6339 111.965C36.4634 111.975 35.8449 112.713 35.7497 113.884C35.8639 115.063 36.5015 115.773 37.6719 115.763Z" fill="#826F8C"/>
<path d="M59.6628 150.629C59.6247 151.867 60.405 152.692 61.604 152.749C62.9267 152.807 63.7736 151.972 63.7641 150.639C63.7546 149.411 62.9172 148.749 61.7182 148.567C60.5287 148.74 59.7009 149.392 59.6628 150.629Z" fill="#826F8C"/>
<path d="M75.8398 162.916C75.8778 161.573 75.0785 160.729 73.7463 160.72C72.5283 160.701 71.729 161.487 71.6719 162.715C71.6148 164.067 72.4617 164.768 73.851 164.979C74.9262 164.758 75.8017 164.163 75.8398 162.916Z" fill="#826F8C"/>
<path d="M47.6064 101.568C47.5113 102.901 48.3106 103.783 49.6333 103.831C50.956 103.87 51.7838 103.026 51.7743 101.683C51.7648 100.446 50.9465 99.7837 49.757 99.5823C48.5295 99.7069 47.6921 100.35 47.6064 101.568Z" fill="#826F8C"/>
<path d="M61.7943 140.692C63.0219 140.654 63.8022 139.877 63.8402 138.649C63.8783 137.306 63.0885 136.462 61.7563 136.434C60.405 136.405 59.7294 137.268 59.5581 138.582C59.7485 139.887 60.4431 140.731 61.7943 140.692Z" fill="#826F8C"/>
<path d="M61.6518 128.185C63.003 128.214 63.8309 127.485 63.888 126.113C63.9451 124.645 63.1553 123.801 61.6803 123.801C60.3101 123.801 59.6344 124.636 59.5107 125.979C59.6154 127.322 60.2815 128.156 61.6518 128.185Z" fill="#826F8C"/>
<path d="M73.6796 152.874C75.145 152.893 75.9633 152.068 75.9158 150.591C75.8777 149.219 75.0689 148.471 73.7081 148.49C72.3378 148.51 71.6622 149.315 71.529 150.783C71.6812 151.982 72.2998 152.855 73.6796 152.874Z" fill="#826F8C"/>
<path d="M86.2501 165.007C87.6108 164.979 88.3911 164.202 88.3911 162.83C88.3911 161.343 87.5347 160.557 86.0788 160.624C84.7085 160.691 84.071 161.554 84.0139 162.926C84.1756 164.25 84.8893 165.036 86.2501 165.007Z" fill="#826F8C"/>
<path d="M61.6804 103.985C63.0221 104.014 63.8595 103.294 63.9451 101.932C64.0403 100.493 63.3361 99.5631 61.8612 99.4863C60.4148 99.4096 59.6059 100.187 59.4537 101.644C59.5203 103.093 60.2054 103.966 61.6804 103.985Z" fill="#826F8C"/>
<path d="M63.9069 114.152C64.0402 112.704 63.3741 111.764 61.8896 111.649C60.5574 111.543 59.6629 112.205 59.5202 113.586C59.3679 115.044 60.0816 115.898 61.5565 116.128C62.8507 116.09 63.7832 115.543 63.9069 114.152Z" fill="#826F8C"/>
<path d="M61.7564 91.4293C63.1076 91.4197 63.9069 90.662 63.9545 89.3C64.0116 87.842 63.2598 86.9692 61.7944 86.9212C60.329 86.8828 59.5677 87.6981 59.4631 89.1561C59.5487 90.6044 60.2909 91.4389 61.7564 91.4293Z" fill="#826F8C"/>
<path d="M75.9921 138.592C76.0111 137.239 75.2974 136.395 73.9462 136.309C72.5188 136.213 71.5958 136.932 71.5196 138.419C71.4435 139.877 72.2143 140.692 73.6607 140.836C75.1071 140.779 75.9635 140.078 75.9921 138.592Z" fill="#826F8C"/>
<path d="M86.0408 152.97C87.4681 153.066 88.3912 152.337 88.4863 150.869C88.5815 149.43 87.8583 148.5 86.4024 148.404C84.975 148.308 84.1186 149.047 83.9283 150.514C83.9283 151.934 84.5753 152.874 86.0408 152.97Z" fill="#826F8C"/>
<path d="M71.3864 125.854C71.3198 127.35 72.2333 128.338 73.7178 128.377C75.1071 128.415 76.0397 127.513 76.1158 126.132C76.1919 124.626 75.2594 123.782 73.7844 123.571C72.4046 123.715 71.4531 124.473 71.3864 125.854Z" fill="#826F8C"/>
<path d="M73.7461 116.291C75.1259 116.31 76.068 115.409 76.1631 114.037C76.2583 112.531 75.3448 111.524 73.8794 111.438C72.3949 111.351 71.5575 112.32 71.3006 113.826C71.4624 115.284 72.2522 116.272 73.7461 116.291Z" fill="#826F8C"/>
<path d="M86.1643 141.057C87.6488 140.999 88.5337 140.136 88.6955 138.668C88.8478 137.345 87.4965 135.954 86.1738 136.06C84.6989 136.175 83.9091 137.095 83.7283 138.438C83.7188 139.819 84.9082 141.105 86.1643 141.057Z" fill="#826F8C"/>
<path d="M73.6892 91.6691C75.1737 91.6212 76.0586 90.7579 76.2394 89.2904C76.3917 87.9763 75.0405 86.5759 73.7273 86.6718C72.2523 86.7869 71.4625 87.6981 71.2722 89.041C71.2532 90.4222 72.4331 91.7075 73.6892 91.6691Z" fill="#826F8C"/>
<path d="M73.8035 99.2562C72.3285 99.2274 71.4341 100.167 71.2723 101.635C71.1295 102.959 72.4808 104.349 73.8035 104.234C75.2784 104.11 76.0682 103.198 76.2585 101.731C76.0682 100.273 75.2784 99.2849 73.8035 99.2562Z" fill="#826F8C"/>
<path d="M88.7421 125.988C88.7516 124.502 87.8286 123.533 86.3727 123.456C84.7931 123.37 83.7749 124.31 83.6988 125.892C83.6226 127.494 84.6313 128.338 86.1729 128.588C87.7144 128.396 88.7231 127.59 88.7421 125.988Z" fill="#826F8C"/>
<path d="M86.2874 116.425C87.8575 116.368 88.8091 115.37 88.7615 113.788C88.7139 112.205 87.7243 111.255 86.1446 111.294C84.565 111.332 83.7752 112.378 83.6134 113.941C83.8704 115.476 84.6982 116.483 86.2874 116.425Z" fill="#826F8C"/>
<path d="M86.2211 104.321C87.8102 104.311 88.7047 103.381 88.7998 101.788C88.8855 100.263 87.6199 99.026 86.1164 99.1315C84.5178 99.2466 83.7375 100.215 83.6042 101.808C83.8041 103.342 84.6129 104.34 86.2211 104.321Z" fill="#826F8C"/>
<path d="M88.8002 89.2424C88.7812 87.6406 87.9248 86.7006 86.3452 86.5663C84.8417 86.4416 83.5761 87.6789 83.6427 89.1944C83.7093 90.8154 84.6514 91.6115 85.9265 91.7746C87.6298 91.7938 88.8098 90.6811 88.8002 89.2424Z" fill="#826F8C"/>
</g>
<defs>
<clipPath id="clip0_39_3065">
<rect width="88.8011" height="78.441" fill="white" transform="translate(96.189 0.736694)"/>
</clipPath>
<clipPath id="clip1_39_3065">
<rect width="88.8011" height="78.441" fill="white" transform="matrix(-1 0 0 1 88.8003 0.736694)"/>
</clipPath>
<clipPath id="clip2_39_3065">
<rect width="88.8011" height="78.441" fill="white" transform="matrix(1 0 0 -1 96.189 165.007)"/>
</clipPath>
<clipPath id="clip3_39_3065">
<rect width="88.8011" height="78.441" fill="white" transform="matrix(-1 0 0 -1 88.8003 165.007)"/>
</clipPath>
</defs>
</svg>
